{"title":"Wall Street 2 Money Never Sleeps 2010 DVDrip English Klam","uid":6571165,"size":2032403074,"categoryP":"video","categoryS":"movies","magnet":"?xt=urn:btih:7423fa42f543b50e7b2c302c4e856e8b61ad94cf&amp;dn=Wall+Street+2+Money+Never+Sleeps+2010+DVDrip+English+Klam&amp;tr=udp%3A%2F%2Ftracker.openbittorrent.com%3A80&amp;tr=udp%3A%2F%2Fopen.demonii.com%3A1337&amp;tr=udp%3A%2F%2Ftracker.coppersurfer.tk%3A6969&amp;tr=udp%3A%2F%2Fexodus.desync.com%3A6969","seeders":1,"leechers":0,"uploader":"Klambake","files":-1,"time":1311976692,"description":"With: Michael Douglas, Shia LaBeouf en Josh Brolin\n\nNa een gevangenisstraf van 8 jaar komt Gordon Gekko vrij. Ondanks zijn pogingen om Wall Street te waarschuwen voor de nakende economische ondergang, gelooft niemand hem door zijn afgenomen status in de financiÃƒÂ«le wereld. Hij besluit daarom maar om zich te concentreren op z'n privÃƒÂ©leven. Hij wil de verwaterde relatie met z'n dochter Winnie verbeteren, maar door zijn lange afwezigheid en het feit dat Winnie hem de zelfmoord van haar broer Rudy verwijt, wil ze niks met hem te maken hebben. Ondertussen sterft de mentor van Jacob, een jonge beursmakelaar die de beleggingsfonds manager Bretton James verdenkt van de moord op z'n mentor. Jacob, die ook de verloofde van Winnie Gekko is, wil wraak en rekent daarbij op de hulp van Gordon. Gordon besluit Jacob te helpen, in de hoop zo dichter bij z'n dochter te raken.\n\nTo take down a merciless finance executive, a young trader agrees to a disgraced Wall street legend's proposal in exchange for the man to be reunited with his daughter, the trader's fiancÃƒÂ©e. \n\n------------------ Dutch Friends ------------------\nYou can find my Friends at: http://www.Film-Test.nl \n------ They got my dutchs subs ---- and more ------\n\nGeneral:\n\nComplete name                    : Wall Street 2\\Money Never Sleeps.avi\nFormat                           : AVI\nFormat/Info                      : Audio Video Interleave\nFile size                        : 1.89 GiB\nDuration                         : 2h 7mn\nOverall bit rate                 : 2 123 Kbps\n\nVideo:\n\nFormat                           : MPEG-4 Visual\nFormat profile                   : Simple@L3\nFormat settings, BVOP            : No\nFormat settings, QPel            : No\nFormat settings, GMC             : No warppoints\nFormat settings, Matrix          : Default (H.263)\nCodec ID                         : XVID\nCodec ID/Hint                    : XviD\nDuration                         : 2h 7mn\nBit rate                         : 1 664 Kbps\nWidth                            : 720 pixels\nHeight                           : 304 pixels\nDisplay aspect ratio             : 2.35:1\nFrame rate                       : 25.000 fps\nColor space                      : YUV\nChroma subsampling               : 4:2:0\nBit depth                        : 8 bits\nScan type                        : Progressive\nBits/(Pixel*Frame)               : 0.304\nStream size                      : 1.48 GiB (78%)\nWriting library                  : XviD 1.1.2 (UTC 2006-11-01)\n\nAudio:\n\nFormat                           : AC-3\nFormat/Info                      : Audio Coding 3\nMode extension                   : CM (complete main)\nCodec ID                         : 2000\nDuration                         : 2h 7mn\nBit rate mode                    : Constant\nBit rate                         : 448 Kbps\nChannel(s)                       : 6 channels\nChannel positions                : Front: L C R, Side: L R, LFE\nSampling rate                    : 48.0 KHz\nBit depth                        : 16 bits\nStream size                      : 409 MiB (21%)\nAlignment                        : Aligned on interleaves\nInterleave, duration             : 32 ms (0.80 video frame)\n\n","torrent":{"xt":"urn:btih:7423fa42f543b50e7b2c302c4e856e8b61ad94cf","amp;dn":"Wall+Street+2+Money+Never+Sleeps+2010+DVDrip+English+Klam","amp;tr":["udp%3A%2F%2Ftracker.openbittorrent.com%3A80","udp%3A%2F%2Fopen.demonii.com%3A1337","udp%3A%2F%2Ftracker.coppersurfer.tk%3A6969","udp%3A%2F%2Fexodus.desync.com%3A6969"],"infoHash":"7423fa42f543b50e7b2c302c4e856e8b61ad94cf","infoHashBuffer":{"type":"Buffer","data":[116,35,250,66,245,67,181,14,123,44,48,44,78,133,110,139,97,173,148,207]},"announce":[],"urlList":[]}}